<svg preserveAspectRatio="none" width="100%" height="100%" overflow="visible" style="display: block;" viewBox="0 0 28 28" fill="none" xmlns="http://www.w3.org/2000/svg">
<g id="Icon">
<path id="Vector" d="M17.5 25.6667V21C17.6623 19.5385 17.2432 18.0718 16.3333 16.9167C19.8333 16.9167 23.3333 14.5833 23.3333 10.5C23.4266 9.04167 23.0183 7.60667 22.1666 6.41667C22.4933 5.075 22.4933 3.675 22.1666 2.33333C22.1666 2.33333 21 2.33333 18.6666 4.08333C15.5866 3.5 12.4133 3.5 9.33331 4.08333C6.99997 2.33333 5.83331 2.33333 5.83331 2.33333C5.48331 3.675 5.48331 5.075 5.83331 6.41667C4.98382 7.60186 4.57152 9.04492 4.66664 10.5C4.66664 14.5833 8.16664 16.9167 11.6666 16.9167C11.2116 17.4883 10.8733 18.1417 10.675 18.8417C10.4766 19.5417 10.4183 20.2767 10.5 21V25.6667" stroke="var(--stroke-0, #333333)" stroke-width="2.33333" stroke-linecap="round" stroke-linejoin="round"/>
<path id="Vector_2" d="M10.5 21C5.23833 23.3333 4.66667 18.6667 2.33333 18.6667" stroke="var(--stroke-0, #333333)" stroke-width="2.33333" stroke-linecap="round" stroke-linejoin="round"/>
</g>
</svg>
