<svg preserveAspectRatio="none" width="100%" height="100%" overflow="visible" style="display: block;" viewBox="0 0 28 28" fill="none" xmlns="http://www.w3.org/2000/svg">
<g id="Icon">
<path id="Vector" d="M18.6667 9.33333C20.5232 9.33333 22.3037 10.0708 23.6164 11.3836C24.9292 12.6963 25.6667 14.4768 25.6667 16.3333V24.5H21V16.3333C21 15.7145 20.7542 15.121 20.3166 14.6834C19.879 14.2458 19.2855 14 18.6667 14C18.0478 14 17.4543 14.2458 17.0168 14.6834C16.5792 15.121 16.3333 15.7145 16.3333 16.3333V24.5H11.6667V16.3333C11.6667 14.4768 12.4042 12.6963 13.7169 11.3836C15.0297 10.0708 16.8102 9.33333 18.6667 9.33333Z" stroke="var(--stroke-0, #0077B5)" stroke-width="2.33333" stroke-linecap="round" stroke-linejoin="round"/>
<path id="Vector_2" d="M7 10.5H2.33333V24.5H7V10.5Z" stroke="var(--stroke-0, #0077B5)" stroke-width="2.33333" stroke-linecap="round" stroke-linejoin="round"/>
<path id="Vector_3" d="M4.66667 7C5.95533 7 7 5.95533 7 4.66667C7 3.378 5.95533 2.33333 4.66667 2.33333C3.378 2.33333 2.33333 3.378 2.33333 4.66667C2.33333 5.95533 3.378 7 4.66667 7Z" stroke="var(--stroke-0, #0077B5)" stroke-width="2.33333" stroke-linecap="round" stroke-linejoin="round"/>
</g>
</svg>
