<svg preserveAspectRatio="none" width="100%" height="100%" overflow="visible" style="display: block;" viewBox="0 0 32 32" fill="none" xmlns="http://www.w3.org/2000/svg">
<g id="Icon">
<path id="Vector" d="M20 29.3333V24C20.1855 22.3297 19.7065 20.6535 18.6666 19.3333C22.6666 19.3333 26.6666 16.6667 26.6666 12C26.7733 10.3333 26.3066 8.69333 25.3333 7.33333C25.7066 5.8 25.7066 4.2 25.3333 2.66667C25.3333 2.66667 24 2.66667 21.3333 4.66667C17.8133 4 14.1866 4 10.6666 4.66667C7.99997 2.66667 6.66664 2.66667 6.66664 2.66667C6.26664 4.2 6.26664 5.8 6.66664 7.33333C5.6958 8.68784 5.2246 10.337 5.3333 12C5.3333 16.6667 9.3333 19.3333 13.3333 19.3333C12.8133 19.9867 12.4266 20.7333 12.2 21.5333C11.9733 22.3333 11.9066 23.1733 12 24V29.3333" stroke="var(--stroke-0, #333333)" stroke-width="2.66667" stroke-linecap="round" stroke-linejoin="round"/>
<path id="Vector_2" d="M12 24C5.98667 26.6667 5.33333 21.3333 2.66667 21.3333" stroke="var(--stroke-0, #333333)" stroke-width="2.66667" stroke-linecap="round" stroke-linejoin="round"/>
</g>
</svg>
